<?xml version="1.0" encoding="iso-8859-1"?>
<svg 
		version="1.1" id="Layer_1" x="0px" y="0px"
		xmlns="http://www.w3.org/2000/svg" xmlns:xlink="http://www.w3.org/1999/xlink" 
		viewBox="0 0 511.996 511.996" style="enable-background:new 0 0 511.996 511.996;"
		xml:space="preserve">
<g>
	<g>
		<g>
			<path fill='#9a1e1e' d="M311.9,174.702c-17.08-19.917-38.5-32.29-55.903-32.29c-8.196,0-17.578,2.735-27.157,7.912
				c-10.146,5.485-20.054,13.554-28.651,23.343c-14.917,16.976-33.555,47.775-37.618,98.024
				c-2.485,30.627,4.563,55.178,20.937,72.932c24.576,26.637,61.695,28.717,72.489,28.717c14.206,0,49.754-2.717,73.01-27.951
				c16.01-17.363,22.893-41.52,20.432-71.814C345.38,223.296,326.781,192.051,311.9,174.702z M214.652,189.53
				c3.171,2.436,6.902,6.265,9.186,11.833c4.049,9.819,2.604,22.471-4.309,37.583c-7.235,15.848-16.049,25.862-25.471,28.971
				c-3.726,1.234-7.117,1.244-9.794,0.842C188.094,231.511,200.717,206.045,214.652,189.53z M313.319,330.918
				c-8.685,9.432-20.068,14.705-30.685,17.607c1.402-12.559,9.588-23.373,24.775-32.873c6.41-4,13.068-7.068,18.754-9.312
				C323.722,316.055,319.438,324.289,313.319,330.918z M296.593,297.26c-23.246,14.373-35.363,33.08-35.529,54.609
				c-1.922,0.098-3.633,0.127-5.069,0.127c-6.123,0-37.632-1.049-56.809-21.844c-9.235-10.02-14.432-23.412-15.54-39.971
				c1.201,0.098,2.46,0.156,3.765,0.156c3.868,0,8.142-0.529,12.681-1.939c15.706-4.922,28.78-18.57,38.844-40.584
				c9.461-20.701,11.02-39.068,4.627-54.573c-3.362-8.182-8.465-14.187-13.348-18.456c10.466-7.755,20.132-11.04,25.779-11.04
				c8.863,0.001,25.07,7.775,39.697,24.844c12.844,14.956,28.873,42.133,32.5,86.7c0.188,2.58,0.314,5.109,0.373,7.549
				C320.819,285.309,308.506,289.899,296.593,297.26z"/>
			<path fill='#9a1e1e' d="M448.007,106.672h10.646v-32C458.652,33.5,425.173,0,384.007,0h-256C86.835,0,53.345,33.5,53.345,74.672v32h10.662
				h10.667V405.34h-21.33v32c0,41.156,33.49,74.656,74.662,74.656h256c41.166,0,74.646-33.5,74.646-74.656v-32h-21.303V106.672
				H448.007z M138.673,490.662h-10.667c-29.402,0-53.334-23.922-53.334-53.322v-10.678h10.672h10.662h42.667V490.662z
				M96.007,405.34V106.672h320V405.34H96.007z M352.007,490.662h-192v-64h192V490.662z M437.35,426.662v10.678
				c0.001,29.4-23.941,53.322-53.343,53.322H373.35v-64h42.656h10.646H437.35z M426.653,85.333H96.006H74.671V74.672
				c0-29.407,23.932-53.339,53.334-53.339h256c29.402,0,53.344,23.931,53.344,53.338v10.662H426.653z"/>
			<path fill='#9a1e1e' d="M192.006,469.34h21.333c5.893,0,10.667-4.785,10.667-10.678c0-5.891-4.774-10.666-10.667-10.666h-21.333
				c-5.893,0-10.662,4.775-10.662,10.666C181.344,464.555,186.113,469.34,192.006,469.34z"/>
			<path fill='#9a1e1e' d="M245.34,469.34h21.333c5.893,0,10.676-4.785,10.676-10.678c0-5.891-4.783-10.666-10.676-10.666H245.34
				c-5.887,0-10.671,4.775-10.671,10.666C234.668,464.555,239.452,469.34,245.34,469.34z"/>
			<path fill='#9a1e1e' d="M298.663,469.34h21.344c5.893,0,10.656-4.785,10.656-10.678c0-5.891-4.764-10.666-10.656-10.666h-21.344
				c-5.873,0-10.656,4.775-10.656,10.666C288.007,464.555,292.79,469.34,298.663,469.34z"/>
			<path fill='#9a1e1e' d="M330.663,42.671H181.344c-5.892,0-10.671,4.774-10.671,10.662c0,5.893,4.78,10.667,10.671,10.667h149.319
				c5.902,0,10.686-4.774,10.686-10.667C341.349,47.446,336.566,42.671,330.663,42.671z"/>
			<path fill='#9a1e1e' d="M117.344,117.334c-5.892,0-10.672,4.774-10.672,10.662v256c0,5.902,4.78,10.666,10.672,10.666
				c5.887,0,10.662-4.764,10.662-10.666v-256C128.006,122.109,123.23,117.334,117.344,117.334z"/>
			<path fill='#9a1e1e' d="M394.663,117.334c-5.883,0-10.656,4.774-10.656,10.662v256c0,5.902,4.773,10.666,10.656,10.666
				c5.902,0,10.688-4.764,10.688-10.666v-256C405.35,122.109,400.566,117.334,394.663,117.334z"/>
		</g>
	</g>
</g>
</svg>
